<svg width="100" height="100" viewBox="0 0 100 100" fill="none" xmlns="http://www.w3.org/2000/svg">
<path fill-rule="evenodd" clip-rule="evenodd" d="M37.5 45.8333C46.6917 45.8333 54.1667 38.3583 54.1667 29.1667C54.1667 19.975 46.6917 12.5 37.5 12.5C28.3083 12.5 20.8333 19.975 20.8333 29.1667C20.8333 38.3583 28.3083 45.8333 37.5 45.8333ZM70.8333 54.1667C77.725 54.1667 83.3334 48.5583 83.3334 41.6667C83.3334 34.775 77.725 29.1667 70.8333 29.1667C63.9417 29.1667 58.3333 34.775 58.3333 41.6667C58.3333 48.5583 63.9417 54.1667 70.8333 54.1667ZM91.6667 79.1667C91.6667 81.4667 89.8042 83.3333 87.5 83.3333H66.6667C66.6667 85.6333 64.8042 87.5 62.5 87.5H12.5C10.1958 87.5 8.33334 85.6333 8.33334 83.3333C8.33334 67.25 21.4208 54.1667 37.5 54.1667C45.5292 54.1667 52.8042 57.4292 58.0833 62.6917C61.7042 59.8917 66.1625 58.3333 70.8333 58.3333C82.3208 58.3333 91.6667 67.6792 91.6667 79.1667Z" fill="#82EA88"/>
<mask id="mask0_124_1206" style="mask-type:luminance" maskUnits="userSpaceOnUse" x="8" y="12" width="84" height="76">
<path fill-rule="evenodd" clip-rule="evenodd" d="M37.5 45.8333C46.6917 45.8333 54.1667 38.3583 54.1667 29.1667C54.1667 19.975 46.6917 12.5 37.5 12.5C28.3083 12.5 20.8333 19.975 20.8333 29.1667C20.8333 38.3583 28.3083 45.8333 37.5 45.8333ZM70.8333 54.1667C77.725 54.1667 83.3334 48.5583 83.3334 41.6667C83.3334 34.775 77.725 29.1667 70.8333 29.1667C63.9417 29.1667 58.3333 34.775 58.3333 41.6667C58.3333 48.5583 63.9417 54.1667 70.8333 54.1667ZM91.6667 79.1667C91.6667 81.4667 89.8042 83.3333 87.5 83.3333H66.6667C66.6667 85.6333 64.8042 87.5 62.5 87.5H12.5C10.1958 87.5 8.33334 85.6333 8.33334 83.3333C8.33334 67.25 21.4208 54.1667 37.5 54.1667C45.5292 54.1667 52.8042 57.4292 58.0833 62.6917C61.7042 59.8917 66.1625 58.3333 70.8333 58.3333C82.3208 58.3333 91.6667 67.6792 91.6667 79.1667Z" fill="white"/>
</mask>
<g mask="url(#mask0_124_1206)">
<rect width="100" height="100" fill="#82EA88"/>
</g>
</svg>
